<svg fill="#ffffff" version="1.1" id="Layer_1" xmlns="http://www.w3.org/2000/svg" xmlns:xlink="http://www.w3.org/1999/xlink" viewBox="0 0 496.00 496.00" xml:space="preserve" stroke="#ffffff" stroke-width="2.48"><g id="SVGRepo_bgCarrier" stroke-width="0"></g><g id="SVGRepo_tracerCarrier" stroke-linecap="round" stroke-linejoin="round"></g><g id="SVGRepo_iconCarrier"> <g> <g> <g> <rect x="320" y="240" width="16" height="16"></rect> <rect x="352" y="240" width="16" height="16"></rect> <rect x="384" y="240" width="16" height="16"></rect> <rect x="416" y="240" width="16" height="16"></rect> <rect x="448" y="240" width="16" height="16"></rect> <rect x="448" y="272" width="16" height="16"></rect> <rect x="448" y="304" width="16" height="16"></rect> <rect x="448" y="336" width="16" height="16"></rect> <rect x="448" y="368" width="16" height="16"></rect> <rect x="448" y="400" width="16" height="16"></rect> <rect x="448" y="432" width="16" height="16"></rect> <rect x="448" y="464" width="16" height="16"></rect> <path d="M320,144.312V92.16l16.312,8.784C336.208,101.968,336,102.952,336,104c0,17.648,14.352,32,32,32s32-14.352,32-32 c0-3.12-0.592-6.08-1.424-8.936L446.8,58.896C451.776,62.088,457.656,64,464,64c17.648,0,32-14.352,32-32S481.648,0,464,0 s-32,14.352-32,32c0,5.472,1.504,10.544,3.936,15.056L390.4,81.2c-5.776-5.672-13.68-9.2-22.4-9.2 c-10.848,0-20.416,5.448-26.208,13.728L320,73.992V16h-76.448C238,6.48,227.792,0,216,0s-22,6.48-27.552,16H0v144h89.136 c-0.672,2.576-1.136,5.224-1.136,8s0.464,5.424,1.136,8H0v144h237.128c5.88,6.112,12.496,11.464,19.704,16H0v144h280v-0.248 c7.296,9.8,18.872,16.248,32,16.248c22.056,0,40-17.944,40-40V343.92c24.816-10.408,45.128-30.28,55.832-55.92H416v208h16V272 H320v16h31.056c-10.344,10.08-24.328,16-39.056,16c-30.872,0-56-25.128-56-56s25.128-56,56-56c14.728,0,28.712,5.92,39.056,16 H320v16h160v272h16V208h-88.168C392.792,171.976,358.736,147.32,320,144.312z M464,16c8.816,0,16,7.184,16,16s-7.184,16-16,16 c-8.824,0-16-7.184-16-16S455.176,16,464,16z M368,88c8.816,0,16,7.184,16,16s-7.184,16-16,16c-8.824,0-16-7.184-16-16 S359.176,88,368,88z M248,32h56v33.376l-56.312-30.32C247.792,34.032,248,33.048,248,32z M216,16c8.816,0,16,7.184,16,16 s-7.184,16-16,16c-8.824,0-16-7.184-16-16S207.176,16,216,16z M200.944,60.064C205.456,62.496,210.528,64,216,64 c10.848,0,20.416-5.448,26.2-13.728l61.8,33.28V144H140.944c-0.592-0.52-1.192-1.032-1.824-1.504L200.944,60.064z M150.864,160 h105.968c-7.208,4.536-13.824,9.888-19.704,16h-86.264c0.672-2.576,1.136-5.224,1.136-8S151.536,162.576,150.864,160z M16,144V32 h168c0,6.344,1.912,12.224,5.104,17.2l-65.384,87.176c-1.232-0.144-2.448-0.376-3.72-0.376c-8.048,0-15.32,3.08-20.944,8H16z M136,168c0,8.824-7.184,16-16,16c-8.824,0-16-7.176-16-16c0-8.824,7.176-16,16-16C128.816,152,136,159.176,136,168z M16,304V192 h83.056c5.624,4.92,12.896,8,20.944,8c8.048,0,15.32-3.08,20.944-8h83.56C214.112,208.184,208,227.376,208,248 c0,20.624,6.112,39.816,16.504,56H16z M16,464V352h256v104c0,2.736,0.28,5.416,0.808,8H16z M336,456c0,13.232-10.768,24-24,24 s-24-10.768-24-24V349.096c7.72,1.832,15.728,2.904,24,2.904c8.2,0,16.248-0.976,24-2.824V456z M371.608,208 c-13.312-19.792-35.656-32-59.608-32c-39.704,0-72,32.296-72,72s32.296,72,72,72c23.952,0,46.296-12.208,59.608-32h18.616 c-14.888,29.104-44.992,48-78.224,48c-48.52,0-88-39.48-88-88c0-48.52,39.48-88,88-88c33.232,0,63.336,18.896,78.224,48H371.608z "></path> <rect x="304" y="224" width="16" height="16"></rect> <rect x="304" y="256" width="16" height="16"></rect> <rect x="288" y="240" width="16" height="16"></rect> <rect x="32" y="432" width="16" height="16"></rect> <rect x="32" y="400" width="16" height="16"></rect> <rect x="64" y="432" width="16" height="16"></rect> <rect x="96" y="432" width="16" height="16"></rect> <rect x="64" y="400" width="16" height="16"></rect> <rect x="32" y="368" width="16" height="16"></rect> </g> </g> </g> </g></svg>