<svg width="256" height="256" viewBox="0 0 256 256" fill="none" xmlns="http://www.w3.org/2000/svg">
<rect width="256" height="256" rx="128" fill="#D9D9D9" fill-opacity="0.75"/>
<path d="M20.3551 182V74.3636H63.4517C71.3703 74.3636 77.9749 75.5374 83.2656 77.8849C88.5563 80.2325 92.5331 83.491 95.196 87.6605C97.8589 91.795 99.1903 96.5601 99.1903 101.956C99.1903 106.161 98.3494 109.857 96.6676 113.045C94.9858 116.199 92.6733 118.792 89.7301 120.824C86.822 122.821 83.4934 124.24 79.7443 125.081V126.132C83.8438 126.307 87.6804 127.464 91.2543 129.601C94.8632 131.738 97.7888 134.734 100.031 138.588C102.274 142.407 103.395 146.962 103.395 152.253C103.395 157.964 101.976 163.062 99.1378 167.547C96.3348 171.997 92.1828 175.518 86.6818 178.111C81.1809 180.704 74.401 182 66.3423 182H20.3551ZM43.1122 163.395H61.6648C68.0066 163.395 72.6316 162.186 75.5398 159.768C78.4479 157.316 79.902 154.057 79.902 149.993C79.902 147.015 79.1837 144.387 77.7472 142.109C76.3106 139.832 74.2609 138.045 71.598 136.749C68.9702 135.452 65.8343 134.804 62.1903 134.804H43.1122V163.395ZM43.1122 119.405H59.983C63.1013 119.405 65.8693 118.862 68.2869 117.776C70.7396 116.654 72.6667 115.078 74.0682 113.045C75.5047 111.013 76.223 108.578 76.223 105.74C76.223 101.851 74.839 98.715 72.071 96.3324C69.3381 93.9498 65.4489 92.7585 60.4034 92.7585H43.1122V119.405ZM118.203 74.3636H146.268L175.91 146.682H177.172L206.814 74.3636H234.879V182H212.805V111.942H211.912L184.056 181.474H169.025L141.17 111.679H140.277V182H118.203V74.3636Z" fill="#105043"/>
</svg>
