<svg width="24" height="24" viewBox="0 0 24 24" fill="none" xmlns="http://www.w3.org/2000/svg"><path fill-rule="evenodd" clip-rule="evenodd" d="M12 22C17.5228 22 22 17.5228 22 12C22 6.47715 17.5228 2 12 2C6.47715 2 2 6.47715 2 12C2 17.5228 6.47715 22 12 22ZM12 12.625L16.8 9.5V8.25L12 11.375L7.2 8.25V9.5L12 12.625ZM7.2 7H16.8C17.46 7 18 7.55625 18 8.25V15.75C18 16.0815 17.8736 16.3995 17.6485 16.6339C17.4235 16.8683 17.1183 17 16.8 17H7.2C6.88174 17 6.57652 16.8683 6.35147 16.6339C6.12643 16.3995 6 16.0815 6 15.75V8.25C6 7.55625 6.534 7 7.2 7Z" fill="#1ABC9C"/></svg>