<svg width="24" height="24" viewBox="0 0 24 24" fill="none" xmlns="http://www.w3.org/2000/svg"><path d="M12.9963 10.8461H13.0116V10.822L12.9963 10.8461ZM12.9963 10.8461H13.0116V10.822L12.9963 10.8461ZM12.9963 10.8461H13.0116V10.822L12.9963 10.8461ZM12.9963 10.8461H13.0116V10.822L12.9963 10.8461ZM12.9963 10.8461H13.0116V10.822L12.9963 10.8461ZM12.9963 10.8461H13.0116V10.822L12.9963 10.8461ZM12.9963 10.8461H13.0116V10.822L12.9963 10.8461ZM12.9963 10.8461H13.0116V10.822L12.9963 10.8461ZM12.9963 10.8461H13.0116V10.822L12.9963 10.8461ZM12.9963 10.8461H13.0116V10.822L12.9963 10.8461ZM12.9963 10.8461H13.0116V10.822L12.9963 10.8461ZM12.9963 10.8461H13.0116V10.822L12.9963 10.8461ZM12.9963 10.8461H13.0116V10.822L12.9963 10.8461ZM12.9963 10.8461H13.0116V10.822L12.9963 10.8461ZM12.9963 10.8461H13.0116V10.822L12.9963 10.8461ZM12.9963 10.8461H13.0116V10.822L12.9963 10.8461ZM12 2C10.0222 2 8.08879 2.58649 6.4443 3.6853C4.79981 4.78412 3.51809 6.3459 2.76121 8.17316C2.00433 10.0004 1.8063 12.0111 2.19215 13.9509C2.578 15.8907 3.53041 17.6725 4.92894 19.0711C6.32746 20.4696 8.10929 21.422 10.0491 21.8078C11.9889 22.1937 13.9996 21.9957 15.8268 21.2388C17.6541 20.4819 19.2159 19.2002 20.3147 17.5557C21.4135 15.9112 22 13.9778 22 12C21.9971 9.34872 20.9426 6.80687 19.0679 4.93213C17.1931 3.0574 14.6513 2.0029 12 2ZM9.49946 16.5019C9.49888 16.5462 9.48086 16.5885 9.44931 16.6197C9.41775 16.6508 9.37519 16.6683 9.33086 16.6683H7.40399C7.35985 16.6683 7.31753 16.6507 7.28632 16.6195C7.25511 16.5883 7.23758 16.546 7.23758 16.5019V10.0271C7.23729 10.0051 7.24138 9.98324 7.24961 9.96279C7.25784 9.94235 7.27006 9.92375 7.28554 9.90806C7.30102 9.89238 7.31946 9.87992 7.3398 9.87142C7.36013 9.86292 7.38195 9.85855 7.40399 9.85855H9.33086C9.353 9.85855 9.37492 9.86291 9.39538 9.87138C9.41583 9.87986 9.43442 9.89227 9.45007 9.90793C9.46573 9.92359 9.47815 9.94217 9.48662 9.96263C9.4951 9.98308 9.49946 10.005 9.49946 10.0271V16.5019ZM8.29954 8.99365C8.06006 8.99365 7.82595 8.92263 7.62683 8.78958C7.4277 8.65653 7.2725 8.46742 7.18085 8.24616C7.08921 8.02491 7.06523 7.78145 7.11195 7.54656C7.15867 7.31168 7.27399 7.09592 7.44334 6.92658C7.61268 6.75724 7.82843 6.64192 8.06332 6.59519C8.2982 6.54847 8.54166 6.57245 8.76292 6.6641C8.98418 6.75575 9.17329 6.91095 9.30634 7.11007C9.43939 7.3092 9.5104 7.5433 9.5104 7.78279C9.51069 7.94188 9.47957 8.09947 9.41882 8.24651C9.35807 8.39354 9.26889 8.52714 9.15639 8.63964C9.0439 8.75214 8.9103 8.84132 8.76326 8.90206C8.61622 8.96281 8.45864 8.99394 8.29954 8.99365ZM17.6536 16.5019C17.653 16.5462 17.635 16.5885 17.6035 16.6197C17.5719 16.6508 17.5293 16.6683 17.485 16.6683H15.5581C15.5363 16.6683 15.5146 16.664 15.4945 16.6556C15.4743 16.6472 15.4559 16.635 15.4405 16.6195C15.425 16.6041 15.4128 16.5857 15.4044 16.5655C15.396 16.5454 15.3917 16.5237 15.3917 16.5019V13.0226C15.3917 12.1073 15.0655 11.4898 14.2466 11.4898C13.9914 11.4912 13.7429 11.5715 13.5351 11.7197C13.3274 11.8679 13.1705 12.0767 13.0861 12.3175C13.0283 12.4955 13.0031 12.6824 13.0116 12.8693V16.5019C13.0116 16.5466 12.9938 16.5895 12.9622 16.6211C12.9306 16.6527 12.8877 16.6705 12.843 16.6705H10.9161C10.8941 16.6705 10.8723 16.6661 10.8519 16.6576C10.8316 16.6491 10.8132 16.6366 10.7977 16.6209C10.7822 16.6053 10.77 16.5867 10.7618 16.5662C10.7535 16.5458 10.7494 16.5239 10.7497 16.5019C10.7497 15.5778 10.7738 11.0913 10.7497 10.0359C10.7494 10.0139 10.7535 9.992 10.7618 9.97155C10.77 9.95111 10.7822 9.93251 10.7977 9.91682C10.8132 9.90113 10.8316 9.88868 10.8519 9.88018C10.8723 9.87168 10.8941 9.86731 10.9161 9.86731H12.8386C12.8609 9.86701 12.8829 9.87117 12.9035 9.87954C12.9241 9.88791 12.9428 9.90032 12.9585 9.91603C12.9742 9.93175 12.9866 9.95045 12.995 9.97104C13.0034 9.99163 13.0075 10.0137 13.0072 10.0359V10.8307C13.212 10.4752 13.5103 10.1825 13.8697 9.98452C14.2291 9.7865 14.6358 9.69068 15.0458 9.70747C16.5325 9.70747 17.6492 10.6797 17.6492 12.7729L17.6536 16.5019ZM13.0116 10.8526V10.8286L12.9963 10.8526H13.0116ZM12.9963 10.8526H13.0116V10.8286L12.9963 10.8526ZM12.9963 10.8526H13.0116V10.8286L12.9963 10.8526ZM12.9963 10.8526H13.0116V10.8286L12.9963 10.8526ZM12.9963 10.8526H13.0116V10.8286L12.9963 10.8526ZM12.9963 10.8526H13.0116V10.8286L12.9963 10.8526ZM12.9963 10.8526H13.0116V10.8286L12.9963 10.8526ZM12.9963 10.8526H13.0116V10.8286L12.9963 10.8526ZM12.9963 10.8526H13.0116V10.8286L12.9963 10.8526ZM12.9963 10.8526H13.0116V10.8286L12.9963 10.8526ZM12.9963 10.8526H13.0116V10.8286L12.9963 10.8526ZM12.9963 10.8526H13.0116V10.8286L12.9963 10.8526ZM12.9963 10.8526H13.0116V10.8286L12.9963 10.8526ZM12.9963 10.8526H13.0116V10.8286L12.9963 10.8526ZM12.9963 10.8526H13.0116V10.8286L12.9963 10.8526Z" fill="#ffffff"/></svg>